<svg width="44" height="57" viewBox="0 0 44 57" fill="none" xmlns="http://www.w3.org/2000/svg">
<path d="M21.9304 17.0174C22.2278 17.199 22.4092 17.5223 22.4092 17.8708V49.0469C22.4092 49.4062 22.2165 49.7379 21.9042 49.9158L10.1976 56.5849C9.53096 56.9646 8.70262 56.4832 8.70262 55.716V24.9013L0.519212 20.4142C0.199032 20.2386 0 19.9025 0 19.5373V8.13442C0 7.77295 0.195073 7.43962 0.51022 7.26258L13.2101 0.128153C13.5179 -0.0447737 13.8941 -0.0425584 14.1999 0.133982L43.4482 17.0211C43.7576 17.1997 43.9482 17.5299 43.9482 17.8871V29.6371C43.9482 29.9949 43.7571 30.3254 43.447 30.5038L32.0667 37.0529C31.4001 37.4365 30.5679 36.9553 30.5679 36.1862V23.6979C30.5679 22.9298 31.3981 22.4484 32.0648 22.8301L40.0582 27.4063C40.7248 27.788 41.555 27.3067 41.555 26.5385V19.6189C41.555 19.2635 41.3663 18.9348 41.0594 18.7555L15.211 3.65616C14.5444 3.26674 13.7066 3.74757 13.7066 4.51963V11.4346C13.7066 11.7831 13.8881 12.1065 14.1855 12.2881L21.9304 17.0174Z" fill="#000080"/>
</svg>
